<?xml version="1.0" standalone="no"?>
<!DOCTYPE svg PUBLIC "-//W3C//DTD SVG 20010904//EN"
 "http://www.w3.org/TR/2001/REC-SVG-20010904/DTD/svg10.dtd">
<svg version="1.0" xmlns="http://www.w3.org/2000/svg"
 width="160.000000pt" height="160.000000pt" viewBox="0 0 160.000000 160.000000"
 preserveAspectRatio="xMidYMid meet">
<metadata>
Created by potrace 1.14, written by Peter Selinger 2001-2017
</metadata>
<g transform="translate(0.000000,160.000000) scale(0.100000,-0.100000)"
fill="#000000" stroke="none">
<path d="M331 1543 c-17 -18 -31 -29 -31 -26 0 4 -6 -2 -14 -12 -8 -11 -12
-23 -10 -26 2 -4 -3 -9 -11 -13 -8 -3 -15 -11 -15 -17 0 -6 -12 -22 -27 -35
-27 -23 -38 -28 -55 -25 -5 0 -8 -6 -8 -14 0 -8 -5 -15 -11 -15 -5 0 -7 -4 -4
-10 3 -5 2 -10 -2 -10 -19 0 -13 -66 7 -88 11 -11 20 -26 20 -32 0 -5 6 -10
13 -10 6 0 20 -12 30 -25 16 -23 16 -27 3 -46 -14 -21 -11 -54 4 -44 5 3 11 1
15 -5 4 -6 19 -5 42 5 19 8 37 15 39 15 5 0 -5 -84 -15 -119 -6 -18 -10 -36
-9 -40 1 -3 -4 -19 -10 -34 -7 -16 -10 -33 -6 -38 3 -5 0 -9 -5 -9 -6 0 -11
-10 -11 -23 0 -13 -14 -44 -30 -70 -17 -26 -30 -52 -30 -57 0 -6 -4 -10 -10
-10 -5 0 -10 -6 -10 -13 0 -7 -20 -35 -45 -61 -24 -26 -47 -56 -50 -66 -6 -19
21 -56 87 -121 21 -20 34 -40 30 -44 -4 -4 -1 -6 7 -4 7 3 33 -15 57 -38 23
-24 48 -43 53 -43 6 0 16 -9 23 -19 6 -10 18 -17 25 -14 7 3 13 0 13 -5 0 -6
10 -14 23 -18 12 -4 41 -20 65 -36 23 -16 42 -26 42 -23 0 3 17 -5 38 -18 37
-24 44 -27 61 -27 5 0 16 -6 23 -12 7 -7 25 -19 41 -27 15 -8 27 -20 27 -27 0
-7 8 -11 20 -9 11 2 20 0 20 -5 0 -10 29 -40 39 -40 4 0 6 96 4 213 -2 116 -3
223 -3 236 0 25 6 38 14 30 2 -2 6 -114 9 -249 3 -135 6 -246 6 -247 1 -2 27
23 59 55 45 45 83 70 167 110 266 128 303 150 392 237 102 101 113 125 78 174
-14 20 -39 51 -55 70 -17 19 -49 67 -72 108 -23 40 -48 73 -55 73 -7 0 -13 5
-13 10 0 6 5 10 10 10 7 0 7 6 1 18 -5 9 -12 24 -14 32 -5 18 -5 17 -23 76
-18 61 -18 73 4 73 51 -1 79 19 65 47 -5 11 -9 24 -9 30 1 12 36 49 36 38 0
-19 58 60 64 86 5 29 -15 85 -27 73 -4 -3 -7 -1 -7 6 0 7 -13 17 -30 22 -16 6
-30 15 -30 20 0 5 -9 9 -20 9 -11 0 -20 4 -20 9 0 5 -13 23 -30 41 -16 18 -30
36 -30 41 0 13 -39 53 -70 72 -22 14 -30 14 -65 2 -22 -8 -46 -22 -53 -32 -7
-10 -16 -17 -20 -17 -4 1 -26 -11 -49 -27 -23 -16 -46 -29 -51 -29 -6 0 -12
-5 -14 -11 -2 -6 -33 -13 -68 -16 -77 -7 -81 -7 -145 2 -27 3 -58 6 -67 6 -10
0 -18 5 -18 10 0 6 -4 7 -10 4 -5 -3 -10 -1 -10 4 0 6 -3 11 -7 10 -16 -2 -53
14 -53 23 0 5 -4 6 -10 3 -5 -3 -10 -3 -10 2 0 8 -67 57 -82 59 -4 1 -11 3
-15 4 -5 1 -11 2 -15 1 -5 0 -8 3 -8 7 0 21 -51 5 -79 -25z"/>
</g>
</svg>
